<svg xmlns="http://www.w3.org/2000/svg" xmlns:xlink="http://www.w3.org/1999/xlink" width="500" zoomAndPan="magnify" viewBox="0 0 375 374.999991" height="500" preserveAspectRatio="xMidYMid meet" version="1.0"><path fill="#999089" d="M 375 187.5 C 375 190.570312 374.925781 193.636719 374.773438 196.699219 C 374.625 199.765625 374.398438 202.824219 374.097656 205.878906 C 373.796875 208.933594 373.421875 211.976562 372.96875 215.011719 C 372.519531 218.046875 371.996094 221.070312 371.398438 224.078125 C 370.796875 227.089844 370.125 230.082031 369.378906 233.058594 C 368.636719 236.035156 367.816406 238.992188 366.925781 241.929688 C 366.035156 244.863281 365.074219 247.777344 364.039062 250.667969 C 363.003906 253.554688 361.902344 256.417969 360.726562 259.253906 C 359.554688 262.089844 358.308594 264.890625 356.996094 267.667969 C 355.6875 270.441406 354.308594 273.179688 352.859375 275.886719 C 351.414062 278.59375 349.902344 281.261719 348.324219 283.894531 C 346.746094 286.527344 345.105469 289.117188 343.402344 291.667969 C 341.695312 294.222656 339.929688 296.730469 338.101562 299.195312 C 336.273438 301.660156 334.386719 304.078125 332.4375 306.449219 C 330.492188 308.820312 328.488281 311.144531 326.429688 313.417969 C 324.367188 315.691406 322.253906 317.914062 320.082031 320.082031 C 317.914062 322.253906 315.691406 324.367188 313.417969 326.429688 C 311.144531 328.488281 308.820312 330.492188 306.449219 332.4375 C 304.078125 334.386719 301.660156 336.273438 299.195312 338.101562 C 296.730469 339.929688 294.222656 341.695312 291.667969 343.402344 C 289.117188 345.105469 286.527344 346.746094 283.894531 348.324219 C 281.261719 349.902344 278.59375 351.414062 275.886719 352.859375 C 273.179688 354.308594 270.441406 355.6875 267.667969 356.996094 C 264.894531 358.308594 262.089844 359.554688 259.253906 360.726562 C 256.417969 361.902344 253.554688 363.003906 250.667969 364.039062 C 247.777344 365.074219 244.863281 366.035156 241.929688 366.925781 C 238.992188 367.816406 236.035156 368.636719 233.058594 369.378906 C 230.082031 370.125 227.089844 370.796875 224.078125 371.398438 C 221.070312 371.996094 218.046875 372.519531 215.011719 372.96875 C 211.976562 373.421875 208.933594 373.796875 205.878906 374.097656 C 202.824219 374.398438 199.765625 374.625 196.699219 374.773438 C 193.636719 374.925781 190.570312 375 187.5 375 C 184.429688 375 181.363281 374.925781 178.300781 374.773438 C 175.234375 374.625 172.175781 374.398438 169.121094 374.097656 C 166.066406 373.796875 163.023438 373.421875 159.988281 372.96875 C 156.953125 372.519531 153.929688 371.996094 150.921875 371.398438 C 147.910156 370.796875 144.917969 370.125 141.941406 369.378906 C 138.964844 368.636719 136.007812 367.816406 133.070312 366.925781 C 130.136719 366.035156 127.222656 365.074219 124.332031 364.039062 C 121.445312 363.003906 118.582031 361.902344 115.746094 360.726562 C 112.910156 359.554688 110.105469 358.308594 107.332031 356.996094 C 104.558594 355.6875 101.820312 354.308594 99.113281 352.859375 C 96.40625 351.414062 93.738281 349.902344 91.105469 348.324219 C 88.472656 346.746094 85.882812 345.105469 83.332031 343.402344 C 80.777344 341.695312 78.269531 339.929688 75.804688 338.101562 C 73.339844 336.273438 70.921875 334.386719 68.550781 332.4375 C 66.179688 330.492188 63.855469 328.488281 61.582031 326.429688 C 59.308594 324.367188 57.085938 322.253906 54.917969 320.082031 C 52.746094 317.914062 50.632812 315.691406 48.570312 313.417969 C 46.511719 311.144531 44.507812 308.820312 42.558594 306.449219 C 40.613281 304.078125 38.726562 301.660156 36.898438 299.195312 C 35.070312 296.730469 33.304688 294.222656 31.597656 291.667969 C 29.894531 289.117188 28.253906 286.527344 26.675781 283.894531 C 25.097656 281.261719 23.585938 278.59375 22.140625 275.886719 C 20.691406 273.179688 19.3125 270.441406 18.003906 267.667969 C 16.691406 264.894531 15.445312 262.089844 14.273438 259.253906 C 13.097656 256.417969 11.996094 253.554688 10.960938 250.667969 C 9.925781 247.777344 8.964844 244.863281 8.074219 241.929688 C 7.183594 238.992188 6.363281 236.035156 5.621094 233.058594 C 4.875 230.082031 4.203125 227.089844 3.601562 224.078125 C 3.003906 221.070312 2.480469 218.046875 2.03125 215.011719 C 1.578125 211.976562 1.203125 208.933594 0.902344 205.878906 C 0.601562 202.824219 0.375 199.765625 0.226562 196.699219 C 0.0742188 193.636719 0 190.570312 0 187.5 C 0 184.429688 0.0742188 181.363281 0.226562 178.300781 C 0.375 175.234375 0.601562 172.175781 0.902344 169.121094 C 1.203125 166.066406 1.578125 163.023438 2.03125 159.988281 C 2.480469 156.953125 3.003906 153.929688 3.601562 150.921875 C 4.203125 147.910156 4.875 144.917969 5.621094 141.941406 C 6.363281 138.964844 7.183594 136.007812 8.074219 133.070312 C 8.964844 130.136719 9.925781 127.222656 10.960938 124.332031 C 11.996094 121.445312 13.097656 118.582031 14.273438 115.746094 C 15.445312 112.910156 16.691406 110.105469 18.003906 107.332031 C 19.3125 104.558594 20.691406 101.820312 22.140625 99.113281 C 23.585938 96.40625 25.097656 93.738281 26.675781 91.105469 C 28.253906 88.472656 29.894531 85.882812 31.597656 83.332031 C 33.304688 80.777344 35.070312 78.269531 36.898438 75.804688 C 38.726562 73.339844 40.613281 70.921875 42.558594 68.550781 C 44.507812 66.179688 46.511719 63.855469 48.570312 61.582031 C 50.632812 59.308594 52.746094 57.085938 54.917969 54.917969 C 57.085938 52.746094 59.308594 50.632812 61.582031 48.570312 C 63.855469 46.511719 66.179688 44.507812 68.550781 42.558594 C 70.921875 40.613281 73.339844 38.726562 75.804688 36.898438 C 78.269531 35.070312 80.777344 33.304688 83.332031 31.597656 C 85.882812 29.894531 88.472656 28.253906 91.105469 26.675781 C 93.738281 25.097656 96.40625 23.585938 99.113281 22.140625 C 101.820312 20.691406 104.558594 19.3125 107.332031 18.003906 C 110.105469 16.691406 112.910156 15.445312 115.746094 14.273438 C 118.582031 13.097656 121.445312 11.996094 124.332031 10.960938 C 127.222656 9.925781 130.136719 8.964844 133.070312 8.074219 C 136.007812 7.183594 138.964844 6.363281 141.941406 5.617188 C 144.917969 4.875 147.910156 4.203125 150.921875 3.601562 C 153.929688 3.003906 156.953125 2.480469 159.988281 2.03125 C 163.023438 1.578125 166.066406 1.203125 169.121094 0.902344 C 172.175781 0.601562 175.234375 0.375 178.300781 0.226562 C 181.363281 0.0742188 184.429688 0 187.5 0 C 190.570312 0 193.636719 0.0742188 196.699219 0.226562 C 199.765625 0.375 202.824219 0.601562 205.878906 0.902344 C 208.933594 1.203125 211.976562 1.578125 215.011719 2.03125 C 218.046875 2.480469 221.070312 3.003906 224.078125 3.601562 C 227.089844 4.203125 230.082031 4.875 233.058594 5.617188 C 236.035156 6.363281 238.992188 7.183594 241.929688 8.074219 C 244.863281 8.964844 247.777344 9.925781 250.667969 10.960938 C 253.554688 11.996094 256.417969 13.097656 259.253906 14.273438 C 262.089844 15.445312 264.894531 16.691406 267.667969 18.003906 C 270.441406 19.3125 273.179688 20.691406 275.886719 22.140625 C 278.59375 23.585938 281.261719 25.097656 283.894531 26.675781 C 286.527344 28.253906 289.117188 29.894531 291.667969 31.597656 C 294.222656 33.304688 296.730469 35.070312 299.195312 36.898438 C 301.660156 38.726562 304.078125 40.613281 306.449219 42.558594 C 308.820312 44.507812 311.144531 46.511719 313.417969 48.570312 C 315.691406 50.632812 317.914062 52.746094 320.082031 54.917969 C 322.253906 57.085938 324.367188 59.308594 326.429688 61.582031 C 328.488281 63.855469 330.492188 66.179688 332.4375 68.550781 C 334.386719 70.921875 336.273438 73.339844 338.101562 75.804688 C 339.929688 78.269531 341.695312 80.777344 343.402344 83.332031 C 345.105469 85.882812 346.746094 88.472656 348.324219 91.105469 C 349.902344 93.738281 351.414062 96.40625 352.859375 99.113281 C 354.308594 101.820312 355.6875 104.558594 356.996094 107.332031 C 358.308594 110.105469 359.554688 112.910156 360.726562 115.746094 C 361.902344 118.582031 363.003906 121.445312 364.039062 124.332031 C 365.074219 127.222656 366.035156 130.136719 366.925781 133.070312 C 367.816406 136.007812 368.636719 138.964844 369.378906 141.941406 C 370.125 144.917969 370.796875 147.910156 371.398438 150.921875 C 371.996094 153.929688 372.519531 156.953125 372.96875 159.988281 C 373.421875 163.023438 373.796875 166.066406 374.097656 169.121094 C 374.398438 172.175781 374.625 175.234375 374.773438 178.300781 C 374.925781 181.363281 375 184.429688 375 187.5 Z M 375 187.5 " fill-opacity="1" fill-rule="nonzero"/><path fill="#000000" d="M 129.21875 255.90625 C 127.667969 255.90625 126.417969 254.65625 126.417969 253.105469 L 126.417969 205.320312 C 126.417969 201.605469 132.054688 201.605469 132.054688 205.320312 L 132.054688 253.105469 C 132.054688 254.65625 130.769531 255.90625 129.21875 255.90625 Z M 129.21875 255.90625 " fill-opacity="1" fill-rule="evenodd"/><path fill="#000000" d="M 245.746094 255.90625 C 244.195312 255.90625 242.914062 254.65625 242.914062 253.105469 L 242.914062 205.320312 C 242.914062 201.605469 248.550781 201.605469 248.550781 205.320312 L 248.550781 253.105469 C 248.550781 254.65625 247.300781 255.90625 245.746094 255.90625 Z M 245.746094 255.90625 " fill-opacity="1" fill-rule="evenodd"/><path fill="#000000" d="M 199.683594 237.242188 C 198.601562 237.242188 197.589844 236.636719 197.117188 235.65625 L 184.933594 210.078125 C 184.363281 208.828125 184.734375 207.34375 185.847656 206.566406 L 215.242188 185.746094 C 216.65625 184.734375 218.648438 185.238281 219.390625 186.824219 L 226.140625 200.929688 C 226.613281 201.875 226.476562 202.988281 225.871094 203.832031 L 201.945312 236.097656 C 201.402344 236.839844 200.558594 237.242188 199.683594 237.242188 Z M 191.042969 209.773438 L 200.1875 229.007812 L 220.335938 201.84375 L 215.746094 192.257812 Z M 191.042969 209.773438 " fill-opacity="1" fill-rule="evenodd"/><path fill="#000000" d="M 175.285156 237.242188 C 174.40625 237.242188 173.5625 236.839844 173.023438 236.097656 L 149.164062 203.832031 C 148.554688 202.988281 148.421875 201.875 148.894531 200.929688 L 155.574219 186.824219 C 156.316406 185.238281 158.308594 184.734375 159.757812 185.746094 L 189.121094 206.566406 C 190.234375 207.34375 190.605469 208.828125 190.03125 210.078125 L 177.847656 235.65625 C 177.375 236.636719 176.363281 237.242188 175.285156 237.242188 Z M 154.664062 201.84375 L 174.777344 229.007812 L 183.921875 209.773438 L 159.21875 192.257812 Z M 154.664062 201.84375 " fill-opacity="1" fill-rule="evenodd"/><path fill="#000000" d="M 195.328125 199.242188 L 179.636719 199.242188 C 173.96875 199.242188 168.296875 197.828125 163.304688 195.125 L 156.25 190.097656 C 149.027344 183.519531 144.910156 174.167969 144.910156 164.484375 C 144.910156 161.917969 144.84375 140.488281 144.945312 139.882812 L 147.578125 124.628906 C 150.648438 114.910156 156.585938 106.574219 167.351562 105.492188 L 172.210938 105.492188 C 179.433594 106.167969 185.949219 109.679688 188.648438 111.296875 C 211.125 97.664062 225.769531 105.796875 230.023438 130.433594 C 230.15625 131.074219 230.054688 161.109375 230.054688 164.484375 C 230.054688 174.167969 225.9375 183.519531 218.75 190.097656 L 211.664062 195.125 C 206.667969 197.828125 201 199.242188 195.328125 199.242188 Z M 166.105469 190.234375 C 170.253906 192.460938 174.945312 193.609375 179.636719 193.609375 L 195.328125 193.609375 C 200.019531 193.609375 204.710938 192.460938 208.863281 190.265625 L 215.070312 185.847656 C 221.042969 180.3125 224.453125 172.550781 224.453125 164.484375 L 224.453125 131.140625 C 224.285156 129.351562 222.902344 124.460938 222.226562 122.636719 C 220.167969 116.96875 216.894531 112.480469 212.101562 110.960938 C 206.601562 109.171875 199.144531 111.230469 190.167969 117 C 188.445312 118.117188 187.164062 117 185.949219 116.257812 C 183.753906 114.910156 178.015625 111.703125 171.808594 111.097656 C 170.929688 111.027344 167.992188 111.027344 166.980469 111.199219 C 159.660156 112.34375 155.640625 118.488281 153.347656 125.035156 C 153.210938 125.371094 153.113281 125.742188 152.976562 126.113281 L 150.511719 140.589844 L 150.511719 164.484375 C 150.511719 172.550781 153.957031 180.3125 159.894531 185.847656 Z M 166.105469 190.234375 " fill-opacity="1" fill-rule="evenodd"/><path fill="#000000" d="M 227.253906 160.332031 C 225.734375 160.332031 224.453125 159.085938 224.453125 157.53125 L 224.453125 131.140625 L 224.148438 129.589844 C 223.40625 125.777344 229.210938 125.234375 232.25 126.519531 C 235.554688 127.902344 237.648438 131.277344 238.15625 136 C 238.964844 143.964844 235.082031 153.886719 229.210938 159.523438 C 228.671875 160.0625 227.964844 160.332031 227.253906 160.332031 Z M 230.054688 131.683594 L 230.054688 148.625 C 231.945312 144.675781 232.925781 140.1875 232.550781 136.574219 C 232.28125 134.113281 231.304688 132.085938 230.054688 131.683594 Z M 230.054688 131.683594 " fill-opacity="1" fill-rule="evenodd"/><path fill="#000000" d="M 147.710938 160.332031 C 147.003906 160.332031 146.292969 160.0625 145.753906 159.523438 C 143.121094 156.992188 140.828125 153.550781 139.175781 149.636719 C 134.855469 139.308594 136.40625 129.152344 142.71875 126.519531 C 145.148438 125.507812 147.980469 125.707031 150.816406 127.125 C 151.898438 127.699219 152.503906 128.914062 152.300781 130.128906 L 150.511719 140.589844 L 150.511719 157.53125 C 150.511719 159.085938 149.265625 160.332031 147.710938 160.332031 Z M 145.921875 131.511719 C 141.570312 131.511719 141.164062 140.761719 144.910156 148.625 C 144.910156 137.824219 144.539062 142.246094 146.363281 131.546875 C 146.191406 131.511719 146.058594 131.511719 145.921875 131.511719 Z M 145.921875 131.511719 " fill-opacity="1" fill-rule="evenodd"/><path fill="#000000" d="M 187.5 175.011719 C 182.707031 175.011719 178.1875 173.023438 175.351562 169.679688 C 174.339844 168.5 174.507812 166.710938 175.6875 165.699219 C 176.871094 164.71875 178.65625 164.855469 179.636719 166.035156 C 183.417969 170.523438 191.550781 170.523438 195.328125 166.035156 C 196.339844 164.855469 198.097656 164.71875 199.277344 165.699219 C 200.457031 166.710938 200.628906 168.5 199.617188 169.679688 C 196.78125 173.023438 192.257812 175.011719 187.5 175.011719 Z M 187.5 175.011719 " fill-opacity="1" fill-rule="evenodd"/><path fill="#000000" d="M 161.886719 135.699219 C 161.042969 135.699219 150.511719 132.796875 148.824219 132.355469 C 145.25 131.445312 146.664062 125.980469 150.242188 126.921875 L 162.59375 130.164062 C 165.765625 130.972656 165.125 135.699219 161.886719 135.699219 Z M 161.886719 135.699219 " fill-opacity="1" fill-rule="evenodd"/><path fill="#000000" d="M 214.699219 135.699219 C 211.425781 135.699219 210.785156 130.972656 213.992188 130.164062 L 226.308594 126.921875 C 229.886719 125.980469 231.335938 131.445312 227.726562 132.355469 C 226.039062 132.796875 215.511719 135.699219 214.699219 135.699219 Z M 214.699219 135.699219 " fill-opacity="1" fill-rule="evenodd"/><path fill="#000000" d="M 172.582031 150.277344 L 166.441406 150.277344 C 160.875 150.277344 156.316406 145.753906 156.316406 140.1875 L 156.316406 135.5625 C 156.316406 132.527344 158.78125 130.0625 161.816406 130.0625 L 177.171875 130.0625 C 180.210938 130.0625 182.675781 132.527344 182.675781 135.5625 L 182.675781 140.1875 C 182.675781 145.753906 178.152344 150.277344 172.582031 150.277344 Z M 161.953125 135.699219 L 161.953125 140.1875 C 161.953125 142.648438 163.976562 144.675781 166.441406 144.675781 L 172.582031 144.675781 C 175.046875 144.675781 177.070312 142.648438 177.070312 140.1875 L 177.070312 135.699219 Z M 161.953125 135.699219 " fill-opacity="1" fill-rule="evenodd"/><path fill="#000000" d="M 210.109375 150.277344 L 204.003906 150.277344 C 198.398438 150.277344 193.878906 145.753906 193.878906 140.1875 L 193.878906 135.5625 C 193.878906 132.527344 196.339844 130.0625 199.378906 130.0625 L 214.734375 130.0625 C 217.769531 130.0625 220.234375 132.527344 220.234375 135.5625 L 220.234375 140.1875 C 220.234375 145.753906 215.710938 150.277344 210.109375 150.277344 Z M 199.515625 135.699219 L 199.515625 140.1875 C 199.515625 142.648438 201.503906 144.675781 204.003906 144.675781 L 210.109375 144.675781 C 212.609375 144.675781 214.597656 142.648438 214.597656 140.1875 L 214.597656 135.699219 Z M 199.515625 135.699219 " fill-opacity="1" fill-rule="evenodd"/><path fill="#000000" d="M 196.679688 139.175781 C 194.992188 139.175781 193.675781 137.214844 188.277344 137.214844 C 185.675781 137.214844 183.179688 137.824219 181.1875 138.871094 C 177.914062 140.589844 175.285156 135.628906 178.558594 133.910156 C 184.292969 130.839844 192.257812 130.839844 197.996094 133.910156 C 200.59375 135.257812 199.582031 139.175781 196.679688 139.175781 Z M 196.679688 139.175781 " fill-opacity="1" fill-rule="evenodd"/><path fill="#000000" d="M 187.5 248.550781 C 185.949219 248.550781 184.664062 247.300781 184.664062 245.746094 L 184.664062 240.785156 C 184.664062 237.074219 190.300781 237.074219 190.300781 240.785156 L 190.300781 245.746094 C 190.300781 247.300781 189.050781 248.550781 187.5 248.550781 Z M 187.5 248.550781 " fill-opacity="1" fill-rule="evenodd"/><path fill="#000000" d="M 294.546875 307.402344 L 80.417969 307.402344 C 74.109375 307.402344 69.011719 302.273438 69.011719 295.996094 L 69.011719 283.140625 C 69.011719 276.828125 74.109375 271.734375 80.417969 271.734375 L 294.546875 271.734375 C 300.855469 271.734375 305.953125 276.828125 305.953125 283.140625 L 305.953125 295.996094 C 305.953125 302.273438 300.855469 307.402344 294.546875 307.402344 Z M 80.417969 277.335938 C 77.214844 277.335938 74.617188 279.933594 74.617188 283.140625 L 74.617188 295.996094 C 74.617188 299.203125 77.214844 301.769531 80.417969 301.769531 L 294.546875 301.769531 C 297.753906 301.769531 300.351562 299.203125 300.351562 295.996094 L 300.351562 283.140625 C 300.351562 279.933594 297.753906 277.335938 294.546875 277.335938 Z M 80.417969 277.335938 " fill-opacity="1" fill-rule="evenodd"/><path fill="#000000" d="M 187.5 277.335938 C 185.339844 277.335938 183.957031 275.007812 185.070312 273.117188 C 188.480469 267.246094 202.921875 261 223.070312 261 L 258.605469 261 C 262.316406 261 262.316406 266.636719 258.605469 266.636719 L 223.070312 266.636719 C 203.699219 266.636719 191.753906 272.8125 189.929688 275.953125 C 189.390625 276.863281 188.445312 277.335938 187.5 277.335938 Z M 187.5 277.335938 " fill-opacity="1" fill-rule="evenodd"/><path fill="#eb6773" d="M 187.5 265.660156 C 193.167969 256.582031 206.871094 250.304688 223.035156 250.304688 L 242.914062 250.304688 L 242.914062 207.308594 C 238.257812 205.792969 233.261719 204.949219 228.0625 204.949219 L 225.027344 204.949219 L 201.945312 236.097656 C 201.402344 236.839844 200.558594 237.242188 199.683594 237.242188 C 198.601562 237.242188 197.589844 236.636719 197.117188 235.65625 L 187.5 215.375 L 177.847656 235.65625 C 177.375 236.636719 176.363281 237.242188 175.285156 237.242188 C 174.40625 237.242188 173.5625 236.839844 173.023438 236.097656 L 150.007812 204.949219 L 146.902344 204.949219 C 141.738281 204.949219 136.742188 205.792969 132.054688 207.308594 L 132.054688 250.304688 L 151.929688 250.304688 C 168.09375 250.304688 181.796875 256.582031 187.5 265.660156 Z M 190.300781 245.746094 C 190.300781 247.300781 189.050781 248.550781 187.5 248.550781 C 185.949219 248.550781 184.664062 247.300781 184.664062 245.746094 L 184.664062 240.785156 C 184.664062 237.074219 190.300781 237.074219 190.300781 240.785156 Z M 190.300781 245.746094 " fill-opacity="1" fill-rule="evenodd"/><path fill="#d9e2e9" d="M 174.777344 229.007812 L 183.921875 209.773438 L 159.21875 192.257812 L 154.664062 201.84375 Z M 174.777344 229.007812 " fill-opacity="1" fill-rule="evenodd"/><path fill="#d9e2e9" d="M 191.042969 209.773438 L 200.1875 229.007812 L 220.335938 201.84375 L 215.746094 192.257812 Z M 191.042969 209.773438 " fill-opacity="1" fill-rule="evenodd"/><path fill="#d9e2e9" d="M 126.417969 250.304688 L 126.417969 209.503906 C 109.949219 217.230469 98.507812 234.003906 98.507812 253.375 L 98.507812 271.734375 L 113.558594 271.734375 L 113.558594 253.105469 C 113.558594 251.550781 114.808594 250.304688 116.359375 250.304688 Z M 126.417969 250.304688 " fill-opacity="1" fill-rule="evenodd"/><path fill="#d9e2e9" d="M 248.550781 209.503906 L 248.550781 250.304688 L 258.605469 250.304688 C 260.15625 250.304688 261.40625 251.550781 261.40625 253.105469 L 261.40625 271.734375 L 276.457031 271.734375 L 276.457031 253.375 C 276.457031 234.003906 265.015625 217.230469 248.550781 209.503906 Z M 248.550781 209.503906 " fill-opacity="1" fill-rule="evenodd"/><path fill="#f6b190" d="M 255.769531 266.636719 L 223.070312 266.636719 C 210.785156 266.636719 201.503906 269.101562 195.871094 271.734375 L 255.769531 271.734375 Z M 255.769531 266.636719 " fill-opacity="1" fill-rule="evenodd"/><path fill="#f8d4a9" d="M 223.070312 261 L 255.769531 261 L 255.769531 255.90625 L 223.035156 255.90625 C 214.226562 255.90625 205.925781 258 199.648438 261.777344 C 197.355469 263.195312 195.429688 264.746094 193.945312 266.402344 C 200.796875 263.296875 210.886719 261 223.070312 261 Z M 223.070312 261 " fill-opacity="1" fill-rule="evenodd"/><path fill="#f6b190" d="M 179.128906 271.734375 C 173.496094 269.101562 164.214844 266.636719 151.929688 266.636719 L 119.195312 266.636719 L 119.195312 271.734375 Z M 179.128906 271.734375 " fill-opacity="1" fill-rule="evenodd"/><path fill="#f8d4a9" d="M 151.929688 261 C 164.078125 261 174.167969 263.296875 180.988281 266.367188 C 179.5 264.714844 177.613281 263.195312 175.316406 261.777344 C 169.039062 258 160.738281 255.90625 151.929688 255.90625 L 119.195312 255.90625 L 119.195312 261 Z M 151.929688 261 " fill-opacity="1" fill-rule="evenodd"/><path fill="#fd9c79" d="M 178.757812 199.210938 L 187.5 205.417969 L 196.207031 199.210938 C 195.902344 199.242188 195.632812 199.242188 195.328125 199.242188 L 179.636719 199.242188 C 179.332031 199.242188 179.0625 199.242188 178.757812 199.210938 Z M 178.757812 199.210938 " fill-opacity="1" fill-rule="evenodd"/><path fill="#000000" d="M 187.5 277.335938 C 186.519531 277.335938 185.578125 276.863281 185.070312 275.953125 C 183.246094 272.8125 171.300781 266.636719 151.929688 266.636719 L 116.359375 266.636719 C 112.683594 266.636719 112.683594 261 116.359375 261 L 151.929688 261 C 172.042969 261 186.519531 267.246094 189.929688 273.117188 C 191.007812 275.007812 189.625 277.335938 187.5 277.335938 Z M 187.5 277.335938 " fill-opacity="1" fill-rule="evenodd"/><path fill="#4a5254" d="M 187.5 277.335938 Z M 294.546875 277.335938 L 187.535156 277.335938 C 187.535156 277.335938 187.5 277.335938 187.5 277.335938 C 187.464844 277.335938 187.464844 277.335938 187.464844 277.335938 C 187.464844 277.335938 187.433594 277.335938 187.433594 277.335938 L 80.417969 277.335938 C 77.214844 277.335938 74.617188 279.933594 74.617188 283.140625 L 74.617188 295.996094 C 74.617188 299.203125 77.214844 301.769531 80.417969 301.769531 L 294.546875 301.769531 C 297.753906 301.769531 300.351562 299.203125 300.351562 295.996094 L 300.351562 283.140625 C 300.351562 279.933594 297.753906 277.335938 294.546875 277.335938 Z M 294.546875 277.335938 " fill-opacity="1" fill-rule="evenodd"/><path fill="#ffaa83" d="M 215.070312 185.847656 C 221.042969 180.3125 224.453125 172.550781 224.453125 164.484375 L 224.453125 133.234375 C 223.101562 133.605469 221.585938 134.011719 220.101562 134.382812 C 220.199219 134.785156 220.234375 135.15625 220.234375 135.5625 L 220.234375 140.1875 C 220.234375 145.753906 215.710938 150.277344 210.109375 150.277344 L 204.003906 150.277344 C 198.398438 150.277344 193.878906 145.753906 193.878906 140.1875 L 193.878906 138.230469 C 192.664062 137.722656 190.976562 137.214844 188.277344 137.214844 C 186.285156 137.214844 184.363281 137.554688 182.675781 138.195312 L 182.675781 140.1875 C 182.675781 145.753906 178.152344 150.277344 172.582031 150.277344 L 166.441406 150.277344 C 160.875 150.277344 156.316406 145.753906 156.316406 140.1875 L 156.316406 135.5625 C 156.316406 135.15625 156.386719 134.785156 156.453125 134.382812 C 154.867188 133.976562 153.179688 133.539062 151.796875 133.167969 L 150.511719 140.589844 L 150.511719 164.484375 C 150.511719 172.550781 153.957031 180.3125 159.894531 185.847656 L 166.105469 190.234375 C 170.253906 192.460938 174.945312 193.609375 179.636719 193.609375 L 195.328125 193.609375 C 200.019531 193.609375 204.710938 192.460938 208.863281 190.265625 Z M 199.617188 169.679688 C 196.78125 173.023438 192.257812 175.011719 187.5 175.011719 C 182.707031 175.011719 178.1875 173.023438 175.351562 169.679688 C 174.339844 168.5 174.507812 166.710938 175.6875 165.699219 C 176.871094 164.71875 178.65625 164.855469 179.636719 166.035156 C 183.417969 170.523438 191.550781 170.523438 195.328125 166.035156 C 196.339844 164.855469 198.097656 164.71875 199.277344 165.699219 C 200.457031 166.710938 200.628906 168.5 199.617188 169.679688 Z M 199.617188 169.679688 " fill-opacity="1" fill-rule="evenodd"/><path fill="#52a9cf" d="M 204.003906 144.675781 L 210.109375 144.675781 C 212.609375 144.675781 214.597656 142.648438 214.597656 140.1875 L 214.597656 135.699219 L 199.515625 135.699219 L 199.515625 140.1875 C 199.515625 142.648438 201.503906 144.675781 204.003906 144.675781 Z M 204.003906 144.675781 " fill-opacity="1" fill-rule="evenodd"/><path stroke-linecap="butt" transform="matrix(0.0337473, 0, 0, 0.0337473, 0.0000045, 0)" fill-opacity="1" fill="#52a9cf" fill-rule="evenodd" stroke-linejoin="miter" d="M 5246.947745 4154.036299 L 5246.947745 4041.990291 C 5246.021745 4038.980791 5246.021745 4035.971291 5246.947745 4032.961791 L 5246.947745 4021.03954 L 4798.995213 4021.03954 L 4798.995213 4154.036299 C 4798.995213 4226.958805 4858.953717 4287.033059 4931.991972 4287.033059 L 5113.950985 4287.033059 C 5186.98924 4287.033059 5246.947745 4226.958805 5246.947745 4154.036299 Z M 5246.947745 4154.036299 " stroke="#52a9cf" stroke-width="3" stroke-opacity="1" stroke-miterlimit="4"/><path fill="#000000" d="M 187.464844 277.335938 L 116.359375 277.335938 C 114.808594 277.335938 113.558594 276.085938 113.558594 274.535156 L 113.558594 253.105469 C 113.558594 251.550781 114.808594 250.304688 116.359375 250.304688 L 151.929688 250.304688 C 172.921875 250.304688 189.761719 260.898438 190.265625 274.433594 C 190.335938 276.019531 189.050781 277.335938 187.464844 277.335938 Z M 119.195312 271.734375 L 184.160156 271.734375 C 183.011719 268.054688 179.941406 264.578125 175.316406 261.777344 C 169.039062 258 160.738281 255.90625 151.929688 255.90625 L 119.195312 255.90625 Z M 119.195312 271.734375 " fill-opacity="1" fill-rule="evenodd"/><path fill="#000000" d="M 258.605469 277.335938 L 187.5 277.335938 C 185.914062 277.335938 184.632812 276.019531 184.699219 274.433594 C 185.207031 260.898438 202.046875 250.304688 223.035156 250.304688 L 258.605469 250.304688 C 260.15625 250.304688 261.40625 251.550781 261.40625 253.105469 L 261.40625 274.535156 C 261.40625 276.085938 260.15625 277.335938 258.605469 277.335938 Z M 190.808594 271.734375 L 255.769531 271.734375 L 255.769531 255.90625 L 223.035156 255.90625 C 214.226562 255.90625 205.925781 258 199.648438 261.777344 C 195.027344 264.578125 191.953125 268.054688 190.808594 271.734375 Z M 190.808594 271.734375 " fill-opacity="1" fill-rule="evenodd"/><path fill="#000000" d="M 279.292969 277.335938 C 277.742188 277.335938 276.457031 276.085938 276.457031 274.535156 L 276.457031 253.375 C 276.457031 226.679688 254.757812 204.949219 228.0625 204.949219 L 223.609375 204.949219 C 219.898438 204.949219 219.898438 199.34375 223.609375 199.34375 L 228.0625 199.34375 C 257.863281 199.34375 282.09375 223.574219 282.09375 253.375 L 282.09375 274.535156 C 282.09375 276.085938 280.84375 277.335938 279.292969 277.335938 Z M 95.671875 277.335938 C 94.121094 277.335938 92.871094 276.085938 92.871094 274.535156 L 92.871094 253.375 C 92.871094 223.574219 117.101562 199.34375 146.902344 199.34375 L 151.425781 199.34375 C 155.101562 199.34375 155.101562 204.949219 151.425781 204.949219 L 146.902344 204.949219 C 120.207031 204.949219 98.507812 226.679688 98.507812 253.375 L 98.507812 274.535156 C 98.507812 276.085938 97.226562 277.335938 95.671875 277.335938 Z M 95.671875 277.335938 " fill-opacity="1" fill-rule="evenodd"/><path fill="#673715" d="M 190.199219 110.421875 C 196.78125 106.609375 202.753906 104.71875 207.949219 104.71875 C 215.308594 104.683594 224.789062 108.464844 229.078125 125.878906 C 230.15625 125.878906 231.203125 126.078125 232.214844 126.484375 C 232.214844 126.484375 232.25 126.519531 232.25 126.519531 C 232.484375 126.621094 232.6875 126.722656 232.890625 126.824219 C 234.882812 114.503906 231.507812 100.835938 216.386719 94.796875 C 214.496094 94.019531 213.621094 91.117188 213.992188 88.992188 C 214.261719 87.4375 215.140625 85.988281 216.152344 84.707031 C 209.066406 84.839844 205.757812 87.910156 205.621094 88.046875 C 204.105469 89.53125 201.574219 88.890625 200.964844 86.867188 C 199.210938 81.09375 201.066406 76.472656 203.832031 73.199219 C 179.738281 73.941406 174.878906 92.367188 174.8125 92.535156 C 174.136719 95.335938 170.152344 95.402344 169.378906 92.601562 C 167.925781 87.238281 168.332031 82.75 169.277344 79.441406 C 152.367188 86.898438 142.277344 107.992188 142.886719 126.449219 C 143.359375 126.25 143.863281 126.113281 144.371094 126.011719 C 145.316406 125.84375 146.292969 125.84375 147.308594 125.980469 L 147.578125 124.628906 C 150.039062 116.765625 153.753906 111.738281 158.105469 108.800781 C 160.703125 107.011719 163.777344 105.867188 167.351562 105.492188 L 167.488281 105.492188 C 169.039062 105.324219 170.59375 105.324219 172.144531 105.492188 L 172.210938 105.492188 C 172.921875 105.527344 173.597656 105.628906 174.238281 105.730469 C 179.300781 106.574219 184.328125 108.667969 188.648438 111.296875 C 189.1875 110.996094 189.695312 110.691406 190.199219 110.421875 Z M 190.199219 110.421875 " fill-opacity="1" fill-rule="evenodd"/><path fill="#fd9c79" d="M 145.011719 139.546875 C 145.179688 138.09375 145.550781 136.339844 146.363281 131.546875 C 146.191406 131.511719 146.058594 131.511719 145.921875 131.511719 C 145.550781 131.511719 145.214844 131.582031 144.878906 131.683594 C 144.878906 131.714844 144.878906 131.714844 144.878906 131.714844 C 144.167969 131.984375 143.628906 132.625 143.191406 133.605469 C 143.121094 133.707031 143.054688 133.839844 142.988281 133.941406 C 141.738281 137.214844 142.347656 143.222656 144.878906 148.589844 C 144.878906 147.308594 144.878906 146.058594 144.878906 144.945312 C 144.878906 142.617188 144.84375 141.46875 144.910156 140.421875 C 144.910156 140.117188 144.945312 139.949219 144.945312 139.882812 Z M 145.011719 139.546875 " fill-opacity="1" fill-rule="evenodd"/><path fill="#ffaa83" d="M 177.171875 130.0625 C 179.097656 130.0625 180.816406 131.074219 181.796875 132.558594 C 185.914062 131.277344 190.636719 131.277344 194.789062 132.558594 C 195.769531 131.074219 197.457031 130.0625 199.378906 130.0625 L 214.328125 130.0625 L 223.710938 127.597656 C 223.238281 125.707031 222.597656 123.683594 222.226562 122.636719 C 220.167969 116.96875 216.894531 112.480469 212.101562 110.960938 C 206.601562 109.171875 199.144531 111.230469 190.167969 117 C 188.445312 118.117188 187.164062 117 185.949219 116.257812 C 183.753906 114.910156 178.015625 111.703125 171.808594 111.097656 C 170.929688 111.027344 167.992188 111.027344 166.980469 111.199219 C 159.660156 112.34375 155.640625 118.488281 153.347656 125.035156 C 153.210938 125.371094 153.113281 125.742188 152.976562 126.113281 L 152.742188 127.566406 L 162.222656 130.0625 Z M 177.171875 130.0625 " fill-opacity="1" fill-rule="evenodd"/><path fill="#fd9c79" d="M 230.054688 132.761719 C 230.089844 136.070312 230.089844 142.414062 230.089844 148.589844 C 231.945312 144.640625 232.925781 140.1875 232.550781 136.574219 C 232.28125 134.113281 231.304688 132.085938 230.054688 131.683594 Z M 230.054688 132.761719 " fill-opacity="1" fill-rule="evenodd"/><path fill="#000000" d="M 234.441406 135.460938 C 231.609375 135.460938 232.148438 132.558594 230.089844 131.683594 C 228.335938 130.972656 227.320312 132.527344 225.5 131.480469 C 224.789062 131.074219 224.316406 130.367188 224.148438 129.589844 C 219.527344 106.707031 206.464844 106.539062 190.167969 117 C 189.1875 117.609375 187.9375 117.609375 187.027344 116.933594 C 186.925781 116.867188 178.457031 110.960938 169.75 110.960938 C 161.75 110.960938 156.25 115.921875 152.976562 126.113281 C 152.367188 128.609375 152.773438 131.140625 150.78125 132.15625 C 148.523438 133.300781 147.171875 130.738281 144.878906 131.683594 C 144.203125 131.984375 143.628906 132.625 143.191406 133.605469 C 142.007812 136.136719 138.261719 135.597656 137.824219 132.863281 C 133.910156 108.09375 148.589844 77.820312 173.832031 72.015625 C 176.398438 71.441406 178.320312 74.378906 176.667969 76.503906 C 176.601562 76.640625 175.382812 78.226562 174.640625 81.0625 C 181.933594 71.613281 194.382812 66.042969 212 67.933594 C 214.835938 68.238281 215.476562 72.152344 212.84375 73.300781 C 212.539062 73.433594 206.835938 76.066406 206.027344 81.261719 C 211.089844 78.933594 217.128906 78.53125 223.507812 79.8125 C 225.972656 80.320312 226.578125 83.625 224.417969 84.976562 C 222.53125 86.125 219.796875 88.519531 219.527344 90.003906 C 239.269531 98.574219 241.429688 118.65625 237.140625 133.4375 C 236.804688 134.617188 235.691406 135.460938 234.441406 135.460938 Z M 229.078125 125.878906 C 230.425781 125.878906 231.707031 126.214844 232.890625 126.824219 C 234.882812 114.503906 231.507812 100.835938 216.386719 94.796875 C 214.496094 94.019531 213.621094 91.117188 213.992188 88.992188 C 214.261719 87.4375 215.140625 85.988281 216.152344 84.707031 C 209.066406 84.839844 205.757812 87.910156 205.621094 88.046875 C 204.105469 89.53125 201.574219 88.890625 200.964844 86.867188 C 199.210938 81.09375 201.066406 76.472656 203.832031 73.199219 C 179.738281 73.941406 174.878906 92.367188 174.8125 92.535156 C 174.136719 95.335938 170.152344 95.402344 169.378906 92.601562 C 167.925781 87.238281 168.332031 82.75 169.277344 79.441406 C 152.367188 86.898438 142.277344 107.992188 142.886719 126.449219 C 144.234375 125.910156 145.753906 125.742188 147.308594 125.980469 L 147.578125 124.628906 C 155.304688 99.992188 175.25 103.164062 188.648438 111.296875 C 195.871094 106.910156 202.382812 104.71875 207.949219 104.71875 C 215.308594 104.683594 224.789062 108.464844 229.078125 125.878906 Z M 229.078125 125.878906 " fill-opacity="1" fill-rule="evenodd"/></svg>