<svg xmlns="http://www.w3.org/2000/svg" xmlns:xlink="http://www.w3.org/1999/xlink" width="700" zoomAndPan="magnify" viewBox="0 0 525 374.999991" height="500" preserveAspectRatio="xMidYMid meet" version="1.0"><defs><g/><clipPath id="5666fadb02"><path d="M 85 205.179688 L 448 205.179688 L 448 291.429688 L 85 291.429688 Z M 85 205.179688 " clip-rule="nonzero"/></clipPath></defs><g clip-path="url(#5666fadb02)"><path fill="#4f5949" d="M 96.066406 288.289062 C 96.960938 286.210938 96.613281 283.675781 95.136719 282.148438 C 94.992188 282.003906 94.847656 281.800781 94.675781 281.683594 C 94.386719 281.511719 94.097656 281.25 93.777344 280.992188 C 93.777344 280.992188 93.75 280.964844 93.75 280.933594 C 93.71875 280.933594 93.71875 280.933594 93.71875 280.933594 C 92.417969 279.695312 91.171875 277.734375 90.390625 276.265625 C 90.363281 275.398438 90.421875 274.417969 90.566406 273.292969 C 91.171875 267.558594 95.859375 261.589844 104.628906 255.300781 C 109.578125 251.640625 115.800781 248.152344 123.324219 244.835938 C 131.140625 241.492188 140.574219 238.578125 151.628906 236.15625 C 175.589844 231.082031 198.714844 229.84375 221.027344 232.4375 C 243.023438 235.0625 265.597656 237.484375 288.808594 239.675781 C 301.511719 241.117188 314.363281 241.925781 327.269531 242.097656 C 340.175781 242.269531 353.78125 241.433594 368.019531 239.589844 C 399.015625 235.609375 421.992188 228.429688 436.898438 218.050781 C 440.289062 215.625 443.363281 213.492188 446.207031 211.597656 C 446.488281 210.539062 446.796875 209.488281 447.101562 208.433594 C 446.960938 207.347656 446.8125 206.265625 446.652344 205.179688 C 443.144531 207.609375 439.144531 210.351562 434.496094 213.523438 C 419.214844 223.613281 397.042969 230.5625 367.875 234.339844 C 343.101562 237.65625 319.484375 237.683594 297.144531 234.457031 C 274.484375 231.253906 251.734375 228.863281 228.929688 227.246094 C 216.574219 226.410156 203.953125 226.179688 191.105469 226.640625 C 178.285156 227.074219 165.117188 228.832031 151.601562 231.832031 C 138.40625 234.832031 127.4375 238.234375 118.726562 241.980469 C 110.363281 246.019531 103.734375 250.027344 98.8125 254.003906 C 89.320312 261.933594 84.75 269.316406 85.183594 276.179688 L 85.445312 278.511719 C 85.5 279.148438 85.589844 279.722656 85.703125 280.273438 C 85.789062 281.628906 85.789062 283.011719 85.644531 284.222656 C 85.558594 285.089844 85.617188 285.980469 85.703125 286.847656 C 85.933594 289.011719 88.222656 291.085938 90.710938 291.402344 " fill-opacity="1" fill-rule="nonzero"/></g><g fill="#4f5949" fill-opacity="1"><g transform="translate(8.273736, 227.89298)"><g><path d="M 1.214844 14.082031 C 1.910156 22.128906 5.25 51.433594 17.1875 50.402344 C 24.699219 49.753906 30.382812 35.75 32.832031 29.730469 L 48.648438 -6.226562 C 49.988281 -9.449219 57.300781 -24.945312 57.113281 -27.089844 C 57.023438 -28.164062 56.148438 -28.898438 55.074219 -28.804688 C 52.792969 -28.609375 47.046875 -13.789062 45.925781 -11.125 C 45.371094 -9.726562 45.015625 -9.15625 44.4375 -8.023438 L 26.335938 32.722656 C 23.183594 40.019531 20.234375 45.003906 17.417969 45.25 C 15.273438 45.433594 13.128906 42.511719 11.050781 35.664062 C 7.234375 22.75 8.519531 18.855469 7.707031 9.46875 C 7.058594 1.957031 7.796875 -9.859375 8.234375 -17.332031 C 9.476562 -46.757812 14.753906 -76.402344 22.160156 -104.875 C 23.410156 -109.171875 21.636719 -110.910156 19.761719 -110.75 C 18.554688 -110.644531 17.402344 -109.871094 16.691406 -108.726562 C 12.6875 -101.894531 5.816406 -62.523438 4.46875 -53.082031 C 1.578125 -33.375 -0.578125 -6.707031 1.214844 14.082031 Z M 1.214844 14.082031 "/></g></g></g><g fill="#4f5949" fill-opacity="1"><g transform="translate(60.847231, 223.354239)"><g><path d="M 11.179688 -0.425781 C 17.480469 -0.96875 22.070312 -7.308594 25 -10.941406 C 26.960938 -13.273438 34.230469 -22.953125 34.011719 -25.5 C 33.90625 -26.707031 33.46875 -27.074219 32.933594 -27.03125 C 30.382812 -26.808594 24.097656 -16.671875 23.621094 -15.957031 C 21.828125 -13.234375 15.46875 -5.523438 11.175781 -5.152344 C 7.554688 -4.839844 5.394531 -12.625 5.046875 -16.648438 C 3.867188 -30.332031 8.710938 -36.828125 2.542969 -36.296875 C -0.140625 -36.066406 -0.960938 -29.914062 -1.121094 -27.0625 C -2.003906 -20.09375 -0.9375 -10.863281 2.800781 -5.105469 C 4.496094 -2.683594 7.558594 -0.113281 11.179688 -0.425781 Z M 2.289062 -53.300781 C 2.542969 -50.347656 4.402344 -49.160156 6.28125 -49.320312 C 8.964844 -49.550781 11.527344 -52.746094 8.550781 -57.488281 C 7.617188 -58.894531 6.632812 -59.351562 5.691406 -59.269531 C 3.679688 -59.09375 2.023438 -56.386719 2.289062 -53.300781 Z M 2.289062 -53.300781 "/></g></g></g><g fill="#4f5949" fill-opacity="1"><g transform="translate(91.425678, 220.71436)"><g><path d="M 7.59375 15.964844 C 0.621094 16.566406 7.882812 8.371094 12.324219 5.015625 C 14.097656 3.648438 21.503906 -1.316406 23.203125 -2.003906 C 20.503906 4.308594 15.640625 15.269531 7.59375 15.964844 Z M 1.148438 -8.613281 C 1.472656 -4.855469 1.289062 0.835938 4.910156 0.523438 C 7.457031 0.300781 8.4375 -11.808594 14.4375 -20.570312 C 16.855469 -23.886719 18.886719 -25.410156 20.496094 -25.550781 C 24.519531 -25.898438 26.25 -18.34375 25.167969 -10.550781 C 24.761719 -7.40625 24.582031 -7.933594 22.140625 -6.503906 C 15.84375 -2.71875 -0.214844 6.910156 0.457031 14.6875 C 0.816406 18.847656 4.050781 20.324219 7.808594 20 C 10.890625 19.734375 14.285156 18.359375 17.074219 16.226562 C 26.480469 9.335938 28.632812 -3.28125 29.542969 -5.253906 C 30.121094 -6.382812 39.09375 -12.023438 43.117188 -15.476562 C 45.101562 -17.539062 47.121094 -19.203125 48.949219 -21.519531 C 49.460938 -21.835938 55.414062 -28.023438 49.914062 -27.550781 C 48.972656 -27.46875 43.304688 -21.167969 41.039062 -19.21875 C 36.511719 -15.3125 35.472656 -14.816406 30.609375 -11.695312 C 30.261719 -15.71875 31.476562 -20.417969 27.882812 -26.054688 C 25.871094 -28.988281 23.332031 -30.253906 20.648438 -30.023438 C 17.160156 -29.722656 13.613281 -26.984375 11.132812 -22.851562 C 10.042969 -21.40625 9.097656 -19.835938 8.441406 -18.023438 L 5.910156 -12.941406 C 4.972656 -23.804688 6.238281 -52.964844 8.238281 -64.21875 C 8.269531 -65.4375 8.777344 -67.371094 8.742188 -67.773438 C 8.796875 -68.726562 7.851562 -70.265625 6.644531 -70.160156 C 5.570312 -70.066406 4.324219 -68.878906 3.292969 -65.140625 C -0.578125 -52.105469 -0.0078125 -22.023438 1.148438 -8.613281 Z M 1.148438 -8.613281 "/></g></g></g><g fill="#4f5949" fill-opacity="1"><g transform="translate(139.036875, 216.60402)"><g><path d="M 1.832031 -0.699219 C 5.988281 -1.058594 3.984375 -5.480469 4.488281 -9.035156 C 4.75 -12.300781 5.722656 -15.085938 6.867188 -17.484375 C 8.714844 -21.15625 9.382812 -21.214844 14.480469 -21.652344 C 15.957031 -21.78125 17.980469 -21.820312 19.722656 -21.972656 C 22.40625 -22.203125 24.527344 -22.65625 24.367188 -24.535156 C 24.214844 -26.277344 20.035156 -26.1875 16.144531 -25.851562 C 13.863281 -25.652344 11.597656 -25.324219 10.390625 -25.21875 C 6.230469 -24.859375 5.648438 -22.242188 3.75 -20.726562 C 3.601562 -22.46875 3.878906 -22.359375 3.71875 -24.238281 C 3.601562 -25.578125 3.464844 -27.1875 3.480469 -28.539062 C 3.558594 -32.332031 4.011719 -34.9375 0.390625 -34.625 C -2.5625 -34.371094 -1.625 -20.398438 -1.417969 -17.984375 C -0.992188 -14.640625 -0.839844 -11.277344 -0.425781 -8.070312 C -0.34375 -7.132812 -0.851562 -0.46875 1.832031 -0.699219 Z M 1.832031 -0.699219 "/></g></g></g><g fill="#4f5949" fill-opacity="1"><g transform="translate(160.897795, 214.716737)"><g><path d="M -1.167969 -13.546875 C -0.753906 -8.71875 -0.152344 -6.472656 4.808594 -6.902344 C 8.699219 -7.238281 11.769531 -20.203125 14.164062 -22.167969 C 14.664062 -16.398438 19.558594 -9.796875 26.265625 -10.375 C 28.542969 -10.570312 31.023438 -11.597656 33.542969 -13.707031 L 37.289062 -17.273438 C 43.5625 -24.433594 42.46875 -27.71875 40.457031 -27.542969 C 39.652344 -27.476562 38.746094 -26.992188 38.15625 -25.996094 C 36.453125 -23.820312 36.15625 -22.578125 33.804688 -20.078125 C 31.109375 -16.875 28.429688 -15.019531 25.882812 -14.800781 C 23.066406 -14.558594 20.464844 -16.496094 18.976562 -21.230469 C 17.328125 -26.222656 19.085938 -32.457031 14.394531 -32.050781 C 12.648438 -31.898438 8.136719 -20.023438 5.8125 -15.636719 L 4.878906 -13.933594 C 4.277344 -13.070312 4.632812 -13.640625 4.265625 -13.203125 C 3.882812 -17.628906 5.320312 -22.890625 6.820312 -25.855469 C 10.132812 -32.898438 12.652344 -35.007812 14.664062 -35.179688 C 17.210938 -35.402344 19.085938 -32.457031 20.964844 -32.617188 C 24.453125 -32.917969 20.304688 -40.261719 14 -39.71875 C 4.613281 -38.90625 -1.828125 -21.191406 -1.167969 -13.546875 Z M -1.167969 -13.546875 "/></g></g></g><g fill="#4f5949" fill-opacity="1"><g transform="translate(199.791439, 211.358996)"><g><path d="M 1.832031 -0.699219 C 5.988281 -1.058594 3.984375 -5.480469 4.488281 -9.035156 C 4.75 -12.300781 5.722656 -15.085938 6.867188 -17.484375 C 8.714844 -21.15625 9.382812 -21.214844 14.480469 -21.652344 C 15.957031 -21.78125 17.980469 -21.820312 19.722656 -21.972656 C 22.40625 -22.203125 24.527344 -22.65625 24.367188 -24.535156 C 24.214844 -26.277344 20.035156 -26.1875 16.144531 -25.851562 C 13.863281 -25.652344 11.597656 -25.324219 10.390625 -25.21875 C 6.230469 -24.859375 5.648438 -22.242188 3.75 -20.726562 C 3.601562 -22.46875 3.878906 -22.359375 3.71875 -24.238281 C 3.601562 -25.578125 3.464844 -27.1875 3.480469 -28.539062 C 3.558594 -32.332031 4.011719 -34.9375 0.390625 -34.625 C -2.5625 -34.371094 -1.625 -20.398438 -1.417969 -17.984375 C -0.992188 -14.640625 -0.839844 -11.277344 -0.425781 -8.070312 C -0.34375 -7.132812 -0.851562 -0.46875 1.832031 -0.699219 Z M 1.832031 -0.699219 "/></g></g></g><g fill="#4f5949" fill-opacity="1"><g transform="translate(221.652359, 209.471713)"><g><path d="M 11.179688 -0.425781 C 17.480469 -0.96875 22.070312 -7.308594 25 -10.941406 C 26.960938 -13.273438 34.230469 -22.953125 34.011719 -25.5 C 33.90625 -26.707031 33.46875 -27.074219 32.933594 -27.03125 C 30.382812 -26.808594 24.097656 -16.671875 23.621094 -15.957031 C 21.828125 -13.234375 15.46875 -5.523438 11.175781 -5.152344 C 7.554688 -4.839844 5.394531 -12.625 5.046875 -16.648438 C 3.867188 -30.332031 8.710938 -36.828125 2.542969 -36.296875 C -0.140625 -36.066406 -0.960938 -29.914062 -1.121094 -27.0625 C -2.003906 -20.09375 -0.9375 -10.863281 2.800781 -5.105469 C 4.496094 -2.683594 7.558594 -0.113281 11.179688 -0.425781 Z M 2.289062 -53.300781 C 2.542969 -50.347656 4.402344 -49.160156 6.28125 -49.320312 C 8.964844 -49.550781 11.527344 -52.746094 8.550781 -57.488281 C 7.617188 -58.894531 6.632812 -59.351562 5.691406 -59.269531 C 3.679688 -59.09375 2.023438 -56.386719 2.289062 -53.300781 Z M 2.289062 -53.300781 "/></g></g></g><g fill="#4f5949" fill-opacity="1"><g transform="translate(252.230807, 206.831834)"><g><path d="M -1.277344 -16.375 C -0.886719 -11.8125 -0.988281 -5.183594 5.179688 -5.71875 C 9.339844 -6.074219 14.761719 -16.8125 16.585938 -20.753906 C 17.261719 -22.300781 18.875 -25.546875 19.886719 -26.308594 C 20.445312 -19.871094 21.941406 -8.785156 30.792969 -9.550781 C 34.816406 -9.898438 39 -13.09375 42.332031 -16.761719 C 43.8125 -18.375 49.542969 -24.003906 49.347656 -26.285156 C 49.21875 -27.761719 48.125 -27.9375 47.050781 -27.84375 C 44.503906 -27.625 36.726562 -14.386719 30.824219 -13.875 C 28.277344 -13.65625 26.070312 -15.761719 24.707031 -22.132812 C 24.003906 -25.582031 24.984375 -34.585938 21.363281 -34.273438 C 18.816406 -34.054688 18.195312 -31.839844 16.671875 -29.140625 L 9.644531 -16.640625 C 8.453125 -14.78125 7.195312 -12.105469 5.109375 -11.25 C 2.320312 -20.0625 9.289062 -34.851562 9.242188 -35.390625 C 9.136719 -36.597656 8.734375 -36.5625 8.519531 -37.488281 C 7.535156 -37.945312 6.71875 -38.007812 6.046875 -37.949219 C 4.972656 -37.859375 4.082031 -37.242188 3.234375 -36.085938 C 0.253906 -31.503906 -1.777344 -22.140625 -1.277344 -16.375 Z M -1.277344 -16.375 "/></g></g></g><g fill="#4f5949" fill-opacity="1"><g transform="translate(297.562019, 202.918329)"><g><path d="M 3.519531 21.992188 C 3.058594 16.625 6.425781 10.253906 9.308594 6.085938 C 10.753906 4.070312 13.628906 -0.230469 15.667969 -1.621094 C 15.992188 2.132812 16.382812 5.070312 15.710938 8.238281 C 14.882812 12.769531 12.488281 19.460938 9.101562 22.457031 C 8.230469 23.339844 6.714844 24.554688 5.507812 24.65625 C 4.566406 24.738281 3.695312 24.003906 3.519531 21.992188 Z M -1.472656 -21.761719 C -0.859375 -14.652344 8.726562 -13.183594 13.542969 -5.898438 C 11.808594 -2.503906 -1.8125 10.289062 -0.773438 22.363281 C -0.355469 27.191406 2.546875 29.507812 6.304688 29.183594 C 10.328125 28.835938 15.15625 25.308594 18.480469 18.402344 C 26.144531 2.335938 19.972656 -4.96875 20.347656 -6.890625 C 20.523438 -7.988281 29.433594 -15.917969 30.839844 -16.851562 L 39.414062 -23.941406 C 42.347656 -25.949219 42.421875 -28.253906 40.273438 -28.070312 C 39.066406 -27.964844 37.371094 -27.277344 35.230469 -25.472656 L 23.507812 -15.675781 C 21.648438 -13.757812 19.898438 -12.121094 17.878906 -10.460938 C 10 -20.320312 -0.0234375 -19.050781 6.390625 -27.710938 C 8.207031 -30.164062 7.859375 -29.460938 11.011719 -30.542969 C 11.527344 -33.964844 10.203125 -35.203125 8.324219 -35.039062 C 4.4375 -34.703125 -2.0625 -28.601562 -1.472656 -21.761719 Z M -1.472656 -21.761719 "/></g></g></g><g fill="#4f5949" fill-opacity="1"><g transform="translate(336.32156, 199.572165)"><g/></g></g><g fill="#4f5949" fill-opacity="1"><g transform="translate(371.057619, 196.573354)"><g><path d="M -42.851562 -56.566406 C -42.691406 -54.6875 -41.3125 -54.398438 -39.839844 -54.527344 C -39.035156 -54.597656 -38.242188 -54.800781 -37.582031 -54.992188 C -36.59375 -57.644531 -37.890625 -56.992188 -34.652344 -58.625 C -33.101562 -59.433594 -31.976562 -60.476562 -30.421875 -61.285156 C -22.386719 -65.222656 -14.9375 -68.164062 -6.269531 -71.074219 C -4.964844 -71.589844 -1.925781 -72.394531 -1.144531 -72.730469 L -1.273438 -60.152344 C -1.257812 -58.398438 -1.136719 -55.4375 -1.253906 -53.667969 C -1.589844 -49.722656 -0.160156 -31.605469 0.277344 -26.507812 L 0.421875 -20.167969 C 1.265625 -10.378906 2.242188 5.617188 3.878906 15.203125 C 4.15625 18.421875 4.707031 23.238281 8.195312 22.9375 C 11.683594 22.636719 8.871094 13.558594 8.605469 10.472656 C 7.828125 4.59375 5.648438 -22.242188 5.703125 -26.300781 C 5.726562 -29.140625 4.9375 -35.152344 4.601562 -39.042969 C 4.441406 -40.917969 4.84375 -40.953125 4.691406 -42.699219 C 4.574219 -44.039062 4.300781 -45.636719 4.332031 -46.855469 L 4.640625 -74.582031 C 7.800781 -75.53125 27.851562 -81.179688 35.230469 -81.816406 C 36.167969 -81.898438 36.839844 -81.957031 37.386719 -81.867188 C 39.03125 -81.605469 38.582031 -82.105469 39.101562 -80.800781 C 44.199219 -81.238281 42.125 -86.464844 35.820312 -85.921875 C 27.640625 -85.214844 19.84375 -83.191406 12.191406 -81.042969 C 10.203125 -80.601562 7.453125 -79.554688 5.308594 -79.367188 C 4.9375 -83.660156 7.921875 -80.40625 7.621094 -83.890625 C 7.550781 -84.695312 7.371094 -85.222656 7.335938 -85.625 C 7.085938 -86.953125 7.445312 -85.90625 7.308594 -87.515625 C 7.121094 -89.660156 5.898438 -91.3125 4.425781 -91.183594 C 2.679688 -91.03125 0.742188 -88.433594 0.0273438 -81.074219 C -0.519531 -76.433594 -0.21875 -77.675781 -5.726562 -75.714844 C -13.183594 -72.90625 -43.375 -62.601562 -42.851562 -56.566406 Z M -42.851562 -56.566406 "/></g></g></g><g fill="#4f5949" fill-opacity="1"><g transform="translate(386.615071, 195.230258)"><g><path d="M 4.074219 -24.808594 C 4.722656 -28.242188 8.699219 -33.855469 12.261719 -34.839844 C 12.230469 -30.511719 7.277344 -26.839844 4.074219 -24.808594 Z M -1.683594 -21.070312 C -1.359375 -17.3125 -1.203125 -13.949219 2.292969 -11.007812 C 4.769531 -8.925781 7.53125 -8.21875 10.347656 -8.460938 C 18.53125 -9.167969 27.078125 -18.148438 31.613281 -23.539062 C 32.691406 -25.117188 32.679688 -25.25 32.105469 -27.230469 C 28.082031 -26.882812 30.273438 -26.53125 25.144531 -21.761719 C 24.265625 -21.011719 23.910156 -20.441406 22.90625 -19.542969 C 20.394531 -17.300781 15.097656 -12.925781 10.40625 -12.519531 C 8.796875 -12.378906 7.140625 -12.777344 5.828125 -13.878906 C 3.351562 -15.964844 3.433594 -18.132812 3.191406 -20.949219 C 7.324219 -21.578125 11.816406 -25.882812 13.753906 -28.480469 C 17.460938 -34.070312 17 -39.4375 11.097656 -38.925781 C 4.660156 -38.371094 -2.261719 -27.773438 -1.683594 -21.070312 Z M -1.683594 -21.070312 "/></g></g></g><g fill="#4f5949" fill-opacity="1"><g transform="translate(415.718247, 192.717741)"><g><path d="M -1.167969 -13.546875 C -0.753906 -8.71875 -0.152344 -6.472656 4.808594 -6.902344 C 8.699219 -7.238281 11.769531 -20.203125 14.164062 -22.167969 C 14.664062 -16.398438 19.558594 -9.796875 26.265625 -10.375 C 28.542969 -10.570312 31.023438 -11.597656 33.542969 -13.707031 L 37.289062 -17.273438 C 43.5625 -24.433594 42.46875 -27.71875 40.457031 -27.542969 C 39.652344 -27.476562 38.746094 -26.992188 38.15625 -25.996094 C 36.453125 -23.820312 36.15625 -22.578125 33.804688 -20.078125 C 31.109375 -16.875 28.429688 -15.019531 25.882812 -14.800781 C 23.066406 -14.558594 20.464844 -16.496094 18.976562 -21.230469 C 17.328125 -26.222656 19.085938 -32.457031 14.394531 -32.050781 C 12.648438 -31.898438 8.136719 -20.023438 5.8125 -15.636719 L 4.878906 -13.933594 C 4.277344 -13.070312 4.632812 -13.640625 4.265625 -13.203125 C 3.882812 -17.628906 5.320312 -22.890625 6.820312 -25.855469 C 10.132812 -32.898438 12.652344 -35.007812 14.664062 -35.179688 C 17.210938 -35.402344 19.085938 -32.457031 20.964844 -32.617188 C 24.453125 -32.917969 20.304688 -40.261719 14 -39.71875 C 4.613281 -38.90625 -1.828125 -21.191406 -1.167969 -13.546875 Z M -1.167969 -13.546875 "/></g></g></g><g fill="#4f5949" fill-opacity="1"><g transform="translate(454.611864, 189.360002)"><g><path d="M 6.171875 -11.476562 L 6.4375 -11.5 C 12.304688 -12.414062 15.757812 -31.898438 21.445312 -36.441406 C 21.792969 -32.417969 23.417969 -27.695312 27.574219 -28.054688 C 31.195312 -28.367188 35.421875 -35.757812 37.941406 -37.867188 C 38.613281 -30.085938 35.960938 -17.023438 40.695312 -7.566406 C 42.503906 -3.804688 45.046875 -2.539062 47.59375 -2.757812 C 52.019531 -3.140625 56.746094 -7.871094 59.792969 -13.269531 C 60.617188 -14.691406 61.09375 -15.410156 61.808594 -16.550781 C 62.496094 -17.960938 62.828125 -18.800781 63.53125 -20.078125 C 64.339844 -21.632812 66.921875 -26.179688 66.78125 -27.789062 C 66.703125 -28.730469 65.828125 -29.464844 65.292969 -29.417969 C 62.339844 -29.164062 61.890625 -26.558594 60.84375 -24.574219 C 57.855469 -18.507812 52.398438 -8.171875 48.507812 -7.835938 C 46.226562 -7.640625 44.496094 -10.460938 43.792969 -18.644531 C 43.144531 -26.15625 44.316406 -40.714844 41.660156 -43.320312 C 40.921875 -44.070312 40.09375 -44.269531 39.289062 -44.199219 C 38.484375 -44.128906 37.703125 -43.792969 36.929688 -43.320312 C 35.527344 -42.386719 34.8125 -41.246094 33.722656 -39.800781 C 31.492188 -37.445312 28.746094 -33.289062 26.753906 -32.847656 C 26.386719 -37.140625 24.996094 -42.289062 20.972656 -41.941406 C 17.753906 -41.664062 14.453125 -34.488281 13.199219 -31.8125 L 7.808594 -20.671875 C 7.5625 -20.378906 7.441406 -20.234375 7.195312 -19.945312 C 6.027344 -33.488281 11.945312 -40.082031 5.101562 -39.492188 C 0.273438 -39.074219 -3.21875 -10.667969 6.171875 -11.476562 Z M 6.171875 -11.476562 "/></g></g></g></svg>